<svg width="48" height="48" viewBox="0 0 48 48" fill="none" xmlns="http://www.w3.org/2000/svg">
<path d="M8 12.4V35.6C8 37.84 8 38.96 8.436 39.816C8.81949 40.5686 9.43139 41.1805 10.184 41.564C11.038 42 12.158 42 14.394 42H33.606C35.842 42 36.96 42 37.814 41.564C38.568 41.18 39.18 40.568 39.564 39.816C40 38.96 40 37.844 40 35.608V12.394C40 10.158 40 9.038 39.564 8.184C39.18 7.43108 38.5674 6.81915 37.814 6.436C36.96 6 35.84 6 33.6 6H14.4C12.16 6 11.04 6 10.184 6.436C9.43139 6.81949 8.81949 7.43139 8.436 8.184C8 9.04 8 10.16 8 12.4Z" stroke="#333333" stroke-width="2" stroke-linecap="round" stroke-linejoin="round"/>
</svg>
